<svg xmlns="http://www.w3.org/2000/svg" width="72" height="72" viewBox="0 0 72 72">
    <defs>
        <linearGradient id="a" x1="50%" x2="50%" y1="0%" y2="100%">
            <stop offset="0%" stop-color="#1E0E2C"/>
            <stop offset="100%" stop-color="#402057"/>
        </linearGradient>
    </defs>
    <g fill="none" fill-rule="evenodd" transform="translate(1 1)">
        <circle cx="35" cy="35" r="35" fill="#FFF" stroke="#D8E3EE"/>
        <circle cx="35" cy="35" r="30" fill="url(#a)"/>
        <g fill="#FFF" fill-rule="nonzero">
            <path d="M49 26.412A4.672 4.672 0 0 1 45.588 23L41 27.588 44.412 31 49 26.412zM28.49 44L33 41.294 30.705 39 28 43.51zM40 29.776l.776-.776L44 32.224l-.776.776zM33 39.261L40.261 32l.739.739L33.739 40zM50 25a3.617 3.617 0 0 0-3-3 3.61 3.61 0 0 0 3 3zM23 20h3v3h-3zM27.624 24h-6.248c-.647 0-1.19.423-1.376 1h9c-.185-.577-.728-1-1.376-1zM26.736 38a1.44 1.44 0 0 0 1.435-1.316L29 26h-9l.829 10.684A1.44 1.44 0 0 0 22.264 38h4.472zm-5.41-7.961l1.005-.077.077 1-1.006.077-.077-1zm.116 1.5l1.006-.077L22.8 36h1.196v1h-2.13l-.424-5.461z"/>
            <path d="M48.982 48H43.89a1.01 1.01 0 0 1-1.018-1c0-.552.456-1 1.018-1h2.036a1.01 1.01 0 0 0 1.018-1c0-.552-.456-1-1.018-1H23.018A1.01 1.01 0 0 0 22 45c0 .552.456 1 1.018 1h12.218a1.01 1.01 0 0 1 1.019 1c0 .552-.457 1-1.019 1H33.71a1.01 1.01 0 0 0-1.018 1c0 .552.456 1 1.018 1h15.273A1.01 1.01 0 0 0 50 49c0-.552-.456-1-1.018-1z"/>
        </g>
    </g>
</svg>
