<svg xmlns="http://www.w3.org/2000/svg" width="72" height="72" viewBox="0 0 72 72">
    <defs>
        <linearGradient id="a" x1="50%" x2="50%" y1="0%" y2="100%">
            <stop offset="0%" stop-color="#1E0E2C"/>
            <stop offset="100%" stop-color="#402057"/>
        </linearGradient>
    </defs>
    <g fill="none" fill-rule="evenodd" transform="translate(1 1)">
        <circle cx="35" cy="35" r="35" fill="#FFF" stroke="#D8E3EE"/>
        <circle cx="35" cy="35" r="30" fill="url(#a)"/>
        <g fill="#FFF" fill-rule="nonzero">
            <path d="M33.999 43.522c-1.246 1.066-2.969 1.305-4.497.623a4.07 4.07 0 0 1-1.383-.994l-2.08 4.263a.34.34 0 0 0 .06.394c.05.054.19.173.41.116l1.516-.39c.172-.045.347-.066.519-.066.726 0 1.409.38 1.738 1.011l.684 1.312c.1.191.287.21.365.209a.394.394 0 0 0 .36-.218L35 43c-.364.097-.708.27-1.001.522zM43.962 47.414l-2.08-4.263a4.069 4.069 0 0 1-1.384.994c-1.528.682-3.251.443-4.497-.623A2.542 2.542 0 0 0 35 43l3.31 6.782a.394.394 0 0 0 .359.218.393.393 0 0 0 .365-.21l.684-1.311c.33-.63 1.012-1.011 1.738-1.011.172 0 .347.021.52.066l1.514.39a.406.406 0 0 0 .411-.116.34.34 0 0 0 .06-.394z"/>
            <path d="M45.951 31.699c-1.659-1.159-2.173-3.46-1.172-5.238.602-1.069.29-2.125-.205-2.757-.494-.632-1.434-1.179-2.589-.818-1.922.6-4.006-.423-4.744-2.33C36.797 19.408 35.792 19 35 19s-1.797.409-2.24 1.555c-.74 1.908-2.823 2.932-4.745 2.331-1.155-.36-2.095.186-2.59.818-.493.632-.806 1.688-.204 2.757 1.001 1.779.487 4.08-1.172 5.238-.997.697-1.164 1.787-.988 2.575.177.788.79 1.697 1.985 1.883 1.987.31 3.43 2.154 3.283 4.2-.088 1.23.644 2.043 1.358 2.393.714.351 1.793.428 2.68-.409A3.828 3.828 0 0 1 35 41.297c.947 0 1.894.348 2.633 1.044.887.837 1.966.76 2.68.41.714-.351 1.446-1.164 1.358-2.394-.146-2.046 1.296-3.89 3.283-4.2 1.194-.186 1.808-1.095 1.985-1.883.176-.788.009-1.879-.988-2.575zM35 39.529c-4.347 0-7.884-3.608-7.884-8.043 0-4.436 3.537-8.044 7.884-8.044s7.884 3.608 7.884 8.044c0 4.435-3.537 8.043-7.884 8.043z"/>
            <path d="M35 24.928c-3.308 0-6 2.916-6 6.5s2.692 6.5 6 6.5 6-2.916 6-6.5-2.692-6.5-6-6.5zm3.075 5.87l-3.734 2.955a.653.653 0 0 1-.518.133.684.684 0 0 1-.45-.307l-1.118-1.723a.785.785 0 0 1 .168-1.037c.31-.237.74-.156.958.181l.714 1.102 3.169-2.507a.654.654 0 0 1 .96.162.786.786 0 0 1-.15 1.04z"/>
        </g>
    </g>
</svg>
