<svg xmlns="http://www.w3.org/2000/svg" width="72" height="72" viewBox="0 0 72 72">
    <defs>
        <linearGradient id="a" x1="50%" x2="50%" y1="0%" y2="100%">
            <stop offset="0%" stop-color="#1E0E2C"/>
            <stop offset="100%" stop-color="#402057"/>
        </linearGradient>
    </defs>
    <g fill="none" fill-rule="evenodd" transform="translate(1 1)">
        <circle cx="35" cy="35" r="35" fill="#FFF" stroke="#D8E3EE"/>
        <circle cx="35" cy="35" r="30" fill="url(#a)"/>
        <g fill="#FFF" fill-rule="nonzero">
            <path d="M25.151 40l-2.94 2.94A4.109 4.109 0 0 0 21 45.864c0 1.105.43 2.144 1.211 2.925A4.109 4.109 0 0 0 25.136 50c1.105 0 2.143-.43 2.924-1.211l2.94-2.94L25.151 40zM26.262 39.021l4.21-4.209 5.664 5.665-4.21 4.209zM49.913 34.407a20.952 20.952 0 0 0-1.228-3.065c-1.213.933-3.172 2.344-4.483 2.807l-.297.105-.6-1.698.298-.105c1.073-.38 2.984-1.761 4.199-2.704a19.908 19.908 0 0 0-2.264-3.012l-4.301 4.302-1.274-1.274 4.302-4.301a19.902 19.902 0 0 0-3.012-2.264c-.943 1.216-2.325 3.127-2.704 4.2l-.105.297-1.698-.6.105-.297c.463-1.311 1.874-3.27 2.807-4.483a20.959 20.959 0 0 0-3.065-1.228L36.316 21l-.206.205a17.585 17.585 0 0 0-3.512 4.994c-.865 1.85-1.368 3.774-1.493 5.719L31 33.547 37.453 40l1.629-.105c1.945-.125 3.87-.628 5.719-1.493a17.587 17.587 0 0 0 4.994-3.512l.205-.206-.087-.277z"/>
        </g>
    </g>
</svg>
