<svg xmlns="http://www.w3.org/2000/svg" width="72" height="72" viewBox="0 0 72 72">
    <defs>
        <linearGradient id="a" x1="50%" x2="50%" y1="0%" y2="100%">
            <stop offset="0%" stop-color="#1E0E2C"/>
            <stop offset="100%" stop-color="#402057"/>
        </linearGradient>
    </defs>
    <g fill="none" fill-rule="evenodd" transform="translate(1 1)">
        <circle cx="35" cy="35" r="35" fill="#FFF" stroke="#D8E3EE"/>
        <circle cx="35" cy="35" r="30" fill="url(#a)"/>
        <g fill="#FFF" fill-rule="nonzero">
            <path d="M41.378 27.373c-.902-.36-1.163-.577-1.163-.97 0-.315.24-.682.914-.682.597 0 1.055.234 1.06.236a.314.314 0 0 0 .45-.161l.163-.417a.258.258 0 0 0-.14-.332c-.367-.16-1.086-.282-1.093-.284-.012-.002-.052-.01-.052-.057l-.002-.605a.336.336 0 0 0-.34-.33h-.295a.336.336 0 0 0-.34.33v.636c0 .049-.053.07-.072.075-.907.214-1.474.875-1.474 1.709 0 1.039.864 1.508 1.796 1.86.745.292 1.05.587 1.05 1.02 0 .47-.431.8-1.048.8-.527 0-1.24-.333-1.247-.336a.335.335 0 0 0-.143-.032.318.318 0 0 0-.301.208l-.157.421c-.056.158.03.286.14.343.437.226 1.285.36 1.322.365.01.002.062.02.062.067v.633c0 .182.153.33.34.33h.305c.188 0 .34-.148.34-.33v-.667c0-.062.047-.067.056-.07.966-.216 1.561-.919 1.561-1.801 0-.907-.506-1.493-1.692-1.96z"/>
            <path d="M40.998 20.043c-4.41 0-7.984 3.556-7.984 7.942 0 4.387 3.574 7.943 7.984 7.943s7.985-3.556 7.985-7.943c0-4.386-3.575-7.942-7.985-7.942zm0 14.044c-3.388 0-6.134-2.732-6.134-6.102s2.746-6.101 6.134-6.101c3.388 0 6.134 2.732 6.134 6.101 0 3.37-2.746 6.102-6.134 6.102z"/>
            <g>
                <path d="M47.372 40.211c-1.686.966-4.005 1.86-6.317 2.236-2.058.335-5.928-.473-5.928-1.427 0-.361 3.394.89 5.448.322 1.574-.436 1.35-1.965.494-2.167-.851-.2-5.84-2.097-7.97-2.163-1.004-.03-3.483.363-4.682.565-.41.07-.668.062-.694.47-.12 1.897-.354 5.775-.482 7.8-.003.044.054.62.512.214.5-.443 1.203-.935 1.853-.782 1.02.24 9.839 1.918 11.055 1.624 1.74-.42 6.667-3.45 7.611-4.392 1.464-1.46.326-3.002-.9-2.3zM25.29 37.504l-4.62-.237c-.357-.018-.722.261-.81.62l-.84 7.917c-.089.36.13.665.487.68l5.12-.001c.358.014.672-.277.7-.646l.562-7.628a.646.646 0 0 0-.6-.705zm-2.72 7.93c-.706 0-1.278-.594-1.278-1.326 0-.733.572-1.326 1.278-1.326.705 0 1.277.594 1.277 1.326 0 .732-.572 1.326-1.277 1.326z"/>
            </g>
        </g>
    </g>
</svg>
